<mxfile host="app.diagrams.net" modified="2022-10-28T08:55:37.769Z" agent="5.0 (Windows NT 10.0; Win64; x64) AppleWebKit/537.36 (KHTML, like Gecko) Chrome/104.0.5112.81 Safari/537.36" etag="sUyMFFb8aUfy7RoQhS6v" version="20.5.1" type="github">
  <diagram id="9pgWwluBCteegxhIgcZV" name="Страница 1">
    <mxGraphModel dx="1221" dy="676" grid="1" gridSize="10" guides="1" tooltips="1" connect="1" arrows="1" fold="1" page="1" pageScale="1" pageWidth="827" pageHeight="1169" math="0" shadow="0">
      <root>
        <mxCell id="0" />
        <mxCell id="1" parent="0" />
        <mxCell id="lhkehTmAOrM0mfdr_SEo-1" value="Restaurant / cafe" style="shape=umlActor;verticalLabelPosition=bottom;verticalAlign=top;html=1;outlineConnect=0;fillColor=#f8cecc;strokeColor=#b85450;" parent="1" vertex="1">
          <mxGeometry x="670" y="455" width="30" height="60" as="geometry" />
        </mxCell>
        <mxCell id="N1njmyorijqHZyylZuGq-3" style="edgeStyle=orthogonalEdgeStyle;rounded=0;orthogonalLoop=1;jettySize=auto;html=1;exitX=0.5;exitY=1;exitDx=0;exitDy=0;entryX=1;entryY=1;entryDx=0;entryDy=0;entryPerimeter=0;" parent="1" source="lhkehTmAOrM0mfdr_SEo-2" target="lhkehTmAOrM0mfdr_SEo-8" edge="1">
          <mxGeometry relative="1" as="geometry">
            <Array as="points">
              <mxPoint x="414" y="930" />
            </Array>
          </mxGeometry>
        </mxCell>
        <mxCell id="lhkehTmAOrM0mfdr_SEo-2" value="Main server / system" style="html=1;fillColor=#fff2cc;strokeColor=#d6b656;" parent="1" vertex="1">
          <mxGeometry x="359" y="460" width="110" height="50" as="geometry" />
        </mxCell>
        <mxCell id="lhkehTmAOrM0mfdr_SEo-3" value="Delivery person" style="shape=umlActor;verticalLabelPosition=bottom;verticalAlign=top;html=1;outlineConnect=0;fillColor=#d5e8d4;strokeColor=#82b366;" parent="1" vertex="1">
          <mxGeometry x="50" y="50" width="30" height="60" as="geometry" />
        </mxCell>
        <mxCell id="lhkehTmAOrM0mfdr_SEo-4" value="" style="endArrow=classic;html=1;rounded=0;exitX=1;exitY=0.3333333333333333;exitDx=0;exitDy=0;exitPerimeter=0;entryX=0.009;entryY=-0.005;entryDx=0;entryDy=0;entryPerimeter=0;" parent="1" source="lhkehTmAOrM0mfdr_SEo-3" target="lhkehTmAOrM0mfdr_SEo-2" edge="1">
          <mxGeometry width="50" height="50" relative="1" as="geometry">
            <mxPoint x="130" y="290" as="sourcePoint" />
            <mxPoint x="180" y="240" as="targetPoint" />
            <Array as="points">
              <mxPoint x="360" y="70" />
            </Array>
          </mxGeometry>
        </mxCell>
        <mxCell id="lhkehTmAOrM0mfdr_SEo-5" value="Gives status of current order" style="text;html=1;align=center;verticalAlign=middle;resizable=0;points=[];autosize=1;strokeColor=#82b366;fillColor=#d5e8d4;" parent="1" vertex="1">
          <mxGeometry x="180" y="80" width="170" height="30" as="geometry" />
        </mxCell>
        <mxCell id="lhkehTmAOrM0mfdr_SEo-6" value="" style="endArrow=classic;html=1;rounded=0;exitX=0.101;exitY=0.002;exitDx=0;exitDy=0;exitPerimeter=0;entryX=0.75;entryY=0.1;entryDx=0;entryDy=0;entryPerimeter=0;" parent="1" source="lhkehTmAOrM0mfdr_SEo-2" target="lhkehTmAOrM0mfdr_SEo-3" edge="1">
          <mxGeometry width="50" height="50" relative="1" as="geometry">
            <mxPoint x="420" y="330" as="sourcePoint" />
            <mxPoint x="370" y="40" as="targetPoint" />
            <Array as="points">
              <mxPoint x="370" y="56" />
            </Array>
          </mxGeometry>
        </mxCell>
        <mxCell id="lhkehTmAOrM0mfdr_SEo-7" value="Receives new orders&amp;nbsp;" style="text;html=1;align=center;verticalAlign=middle;resizable=0;points=[];autosize=1;strokeColor=#d6b656;fillColor=#fff2cc;" parent="1" vertex="1">
          <mxGeometry x="120" y="25" width="140" height="30" as="geometry" />
        </mxCell>
        <mxCell id="lhkehTmAOrM0mfdr_SEo-8" value="User / customer" style="shape=umlActor;verticalLabelPosition=bottom;verticalAlign=top;html=1;outlineConnect=0;fillColor=#dae8fc;strokeColor=#6c8ebf;" parent="1" vertex="1">
          <mxGeometry x="50" y="870" width="30" height="60" as="geometry" />
        </mxCell>
        <mxCell id="lhkehTmAOrM0mfdr_SEo-9" value="" style="endArrow=classic;html=1;rounded=0;entryX=0.195;entryY=1.002;entryDx=0;entryDy=0;entryPerimeter=0;" parent="1" target="lhkehTmAOrM0mfdr_SEo-2" edge="1">
          <mxGeometry width="50" height="50" relative="1" as="geometry">
            <mxPoint x="80" y="890" as="sourcePoint" />
            <mxPoint x="390" y="770" as="targetPoint" />
            <Array as="points">
              <mxPoint x="380" y="890" />
            </Array>
          </mxGeometry>
        </mxCell>
        <mxCell id="lhkehTmAOrM0mfdr_SEo-10" value="new order" style="text;html=1;align=center;verticalAlign=middle;resizable=0;points=[];autosize=1;strokeColor=#6c8ebf;fillColor=#dae8fc;" parent="1" vertex="1">
          <mxGeometry x="279" y="850" width="80" height="30" as="geometry" />
        </mxCell>
        <mxCell id="lhkehTmAOrM0mfdr_SEo-11" value="" style="endArrow=classic;html=1;rounded=0;entryX=0.5;entryY=1;entryDx=0;entryDy=0;" parent="1" target="lhkehTmAOrM0mfdr_SEo-13" edge="1">
          <mxGeometry width="50" height="50" relative="1" as="geometry">
            <mxPoint x="72" y="880" as="sourcePoint" />
            <mxPoint x="370" y="710" as="targetPoint" />
            <Array as="points">
              <mxPoint x="225" y="880" />
            </Array>
          </mxGeometry>
        </mxCell>
        <mxCell id="lhkehTmAOrM0mfdr_SEo-12" value="money" style="text;html=1;align=center;verticalAlign=middle;resizable=0;points=[];autosize=1;strokeColor=#6c8ebf;fillColor=#dae8fc;" parent="1" vertex="1">
          <mxGeometry x="155" y="840" width="60" height="30" as="geometry" />
        </mxCell>
        <mxCell id="lhkehTmAOrM0mfdr_SEo-13" value="Payment system &lt;br&gt;(3-rd party)&amp;nbsp;" style="html=1;fillColor=#e1d5e7;strokeColor=#9673a6;" parent="1" vertex="1">
          <mxGeometry x="170" y="460" width="110" height="50" as="geometry" />
        </mxCell>
        <mxCell id="lhkehTmAOrM0mfdr_SEo-14" value="" style="endArrow=classic;html=1;rounded=0;exitX=1;exitY=0.75;exitDx=0;exitDy=0;entryX=0;entryY=0.75;entryDx=0;entryDy=0;" parent="1" source="lhkehTmAOrM0mfdr_SEo-13" target="lhkehTmAOrM0mfdr_SEo-2" edge="1">
          <mxGeometry width="50" height="50" relative="1" as="geometry">
            <mxPoint x="295" y="535" as="sourcePoint" />
            <mxPoint x="365" y="520" as="targetPoint" />
          </mxGeometry>
        </mxCell>
        <mxCell id="lhkehTmAOrM0mfdr_SEo-15" value="money" style="text;html=1;align=center;verticalAlign=middle;resizable=0;points=[];autosize=1;strokeColor=#9673a6;fillColor=#e1d5e7;" parent="1" vertex="1">
          <mxGeometry x="290" y="510" width="60" height="30" as="geometry" />
        </mxCell>
        <mxCell id="lhkehTmAOrM0mfdr_SEo-17" value="" style="endArrow=classic;html=1;rounded=0;exitX=0;exitY=0.25;exitDx=0;exitDy=0;entryX=1;entryY=0.25;entryDx=0;entryDy=0;" parent="1" source="lhkehTmAOrM0mfdr_SEo-2" target="lhkehTmAOrM0mfdr_SEo-13" edge="1">
          <mxGeometry width="50" height="50" relative="1" as="geometry">
            <mxPoint x="271" y="440" as="sourcePoint" />
            <mxPoint x="350" y="440" as="targetPoint" />
          </mxGeometry>
        </mxCell>
        <mxCell id="lhkehTmAOrM0mfdr_SEo-18" value="money" style="text;html=1;align=center;verticalAlign=middle;resizable=0;points=[];autosize=1;strokeColor=#d6b656;fillColor=#fff2cc;" parent="1" vertex="1">
          <mxGeometry x="290" y="430" width="60" height="30" as="geometry" />
        </mxCell>
        <mxCell id="lhkehTmAOrM0mfdr_SEo-19" value="order" style="html=1;verticalAlign=bottom;endArrow=open;dashed=1;endSize=8;rounded=0;entryX=0.5;entryY=0;entryDx=0;entryDy=0;entryPerimeter=0;fillColor=#d5e8d4;strokeColor=#82b366;" parent="1" source="lhkehTmAOrM0mfdr_SEo-3" target="lhkehTmAOrM0mfdr_SEo-8" edge="1">
          <mxGeometry relative="1" as="geometry">
            <mxPoint x="170" y="260" as="sourcePoint" />
            <mxPoint x="70" y="410" as="targetPoint" />
          </mxGeometry>
        </mxCell>
        <mxCell id="lhkehTmAOrM0mfdr_SEo-21" value="" style="endArrow=classic;html=1;rounded=0;exitX=1;exitY=0.5;exitDx=0;exitDy=0;" parent="1" source="lhkehTmAOrM0mfdr_SEo-2" target="lhkehTmAOrM0mfdr_SEo-1" edge="1">
          <mxGeometry width="50" height="50" relative="1" as="geometry">
            <mxPoint x="510" y="580" as="sourcePoint" />
            <mxPoint x="560" y="530" as="targetPoint" />
          </mxGeometry>
        </mxCell>
        <mxCell id="lhkehTmAOrM0mfdr_SEo-22" value="new order" style="text;html=1;align=center;verticalAlign=middle;resizable=0;points=[];autosize=1;strokeColor=#d6b656;fillColor=#fff2cc;" parent="1" vertex="1">
          <mxGeometry x="520" y="450" width="80" height="30" as="geometry" />
        </mxCell>
        <mxCell id="lhkehTmAOrM0mfdr_SEo-23" value="" style="endArrow=classic;html=1;rounded=0;exitX=0.5;exitY=0;exitDx=0;exitDy=0;entryX=0.5;entryY=0;entryDx=0;entryDy=0;entryPerimeter=0;" parent="1" source="lhkehTmAOrM0mfdr_SEo-13" target="lhkehTmAOrM0mfdr_SEo-1" edge="1">
          <mxGeometry width="50" height="50" relative="1" as="geometry">
            <mxPoint x="240" y="400" as="sourcePoint" />
            <mxPoint x="680" y="400" as="targetPoint" />
            <Array as="points">
              <mxPoint x="225" y="400" />
              <mxPoint x="685" y="400" />
            </Array>
          </mxGeometry>
        </mxCell>
        <mxCell id="lhkehTmAOrM0mfdr_SEo-24" value="money" style="text;html=1;align=center;verticalAlign=middle;resizable=0;points=[];autosize=1;strokeColor=#9673a6;fillColor=#e1d5e7;" parent="1" vertex="1">
          <mxGeometry x="570" y="360" width="60" height="30" as="geometry" />
        </mxCell>
        <mxCell id="lhkehTmAOrM0mfdr_SEo-25" value="order" style="html=1;verticalAlign=bottom;endArrow=open;dashed=1;endSize=8;rounded=0;exitX=1;exitY=0.3333333333333333;exitDx=0;exitDy=0;exitPerimeter=0;fillColor=#f8cecc;strokeColor=#b85450;" parent="1" source="lhkehTmAOrM0mfdr_SEo-1" target="lhkehTmAOrM0mfdr_SEo-3" edge="1">
          <mxGeometry relative="1" as="geometry">
            <mxPoint x="820" y="370" as="sourcePoint" />
            <mxPoint x="130" y="80" as="targetPoint" />
            <Array as="points">
              <mxPoint x="710" y="475" />
              <mxPoint x="710" y="150" />
              <mxPoint x="130" y="150" />
              <mxPoint x="130" y="80" />
            </Array>
          </mxGeometry>
        </mxCell>
        <mxCell id="lhkehTmAOrM0mfdr_SEo-26" value="" style="endArrow=classic;html=1;rounded=0;exitX=0;exitY=0;exitDx=0;exitDy=0;" parent="1" source="lhkehTmAOrM0mfdr_SEo-13" edge="1">
          <mxGeometry width="50" height="50" relative="1" as="geometry">
            <mxPoint x="120" y="360" as="sourcePoint" />
            <mxPoint x="90" y="100" as="targetPoint" />
            <Array as="points">
              <mxPoint x="170" y="100" />
            </Array>
          </mxGeometry>
        </mxCell>
        <mxCell id="lhkehTmAOrM0mfdr_SEo-27" value="money" style="text;html=1;align=center;verticalAlign=middle;resizable=0;points=[];autosize=1;strokeColor=#9673a6;fillColor=#e1d5e7;" parent="1" vertex="1">
          <mxGeometry x="170" y="260" width="60" height="30" as="geometry" />
        </mxCell>
        <mxCell id="N1njmyorijqHZyylZuGq-4" value="Gives status of current order" style="text;html=1;align=center;verticalAlign=middle;resizable=0;points=[];autosize=1;strokeColor=#d6b656;fillColor=#fff2cc;" parent="1" vertex="1">
          <mxGeometry x="244" y="940" width="170" height="30" as="geometry" />
        </mxCell>
        <mxCell id="xdqbRRz0h2fY2eq8wupu-1" value="If we have problems with delivery person, system will change him and give all actions / terms to another delivery person." style="shape=note;size=20;whiteSpace=wrap;html=1;" vertex="1" parent="1">
          <mxGeometry x="460" y="535" width="140" height="115" as="geometry" />
        </mxCell>
      </root>
    </mxGraphModel>
  </diagram>
</mxfile>
